<mxfile host="app.diagrams.net" modified="2024-04-25T15:22:06.083Z" agent="Mozilla/5.0 (Windows NT 10.0; Win64; x64) AppleWebKit/537.36 (KHTML, like Gecko) Chrome/124.0.0.0 Safari/537.36" version="24.2.5" etag="Yvd0ZRpC-MDfYk0akv7M" type="github">
  <diagram name="Page-1" id="SsbEKT5hrT7CnirjnWuA">
    <mxGraphModel>
      <root>
        <mxCell id="0" />
        <mxCell id="1" parent="0" />
      </root>
    </mxGraphModel>
  </diagram>
</mxfile>
